<svg id="visual" viewBox="0 0 900 600" width="900" height="600" xmlns="http://www.w3.org/2000/svg" xmlns:xlink="http://www.w3.org/1999/xlink" version="1.1"><path d="M0 515L21.5 504.2C43 493.3 86 471.7 128.8 456.2C171.7 440.7 214.3 431.3 257.2 443.3C300 455.3 343 488.7 385.8 497.5C428.7 506.3 471.3 490.7 514.2 473.2C557 455.7 600 436.3 642.8 442C685.7 447.7 728.3 478.3 771.2 493.5C814 508.7 857 508.3 878.5 508.2L900 508L900 601L878.5 601C857 601 814 601 771.2 601C728.3 601 685.7 601 642.8 601C600 601 557 601 514.2 601C471.3 601 428.7 601 385.8 601C343 601 300 601 257.2 601C214.3 601 171.7 601 128.8 601C86 601 43 601 21.5 601L0 601Z" fill="#3e99a3" stroke-linecap="round" stroke-linejoin="miter"></path></svg>